<?xml version="1.0" encoding="utf-8"?>
<!-- Generator: Adobe Illustrator 25.2.1, SVG Export Plug-In . SVG Version: 6.00 Build 0)  -->
<svg version="1.1" xmlns="http://www.w3.org/2000/svg" xmlns:xlink="http://www.w3.org/1999/xlink" x="0px" y="0px"
	 viewBox="0 0 276.26 50" style="enable-background:new 0 0 276.26 50;" xml:space="preserve">
<style type="text/css">
	.st0{display:none;}
	.st1{display:inline;fill:none;stroke:#E7ECEA;}
	.st2{display:inline;}
	.st3{fill:#008452;}
	.st4{fill:#FFFFFF;}
	.st5{font-family:'SegoeUI-Bold';}
	.st6{font-size:20px;}
	.st7{fill:#E7ECEA;}
	.st8{fill:none;stroke:#E7ECEA;}
</style>
<g id="crycle1" class="st0">
	<line id="Line_2" class="st1" x1="39.14" y1="26.22" x2="229.14" y2="26.22"/>
	<g id="Group_11" transform="translate(-35 -67)" class="st2">
		<circle id="Ellipse_1" class="st3" cx="61.64" cy="91.72" r="20"/>
		<text transform="matrix(1 0 0 1 55.6421 100.7191)" class="st4 st5 st6">1</text>
	</g>
	<g id="Group_10" transform="translate(-20 -66)" class="st2">
		<circle id="Ellipse_2" class="st7" cx="120.64" cy="91.72" r="20"/>
		<text transform="matrix(1 0 0 1 114.6421 100.7191)" class="st4 st5 st6">2</text>
	</g>
	<g id="Group_9" transform="translate(0 -66)" class="st2">
		<circle id="Ellipse_3" class="st7" cx="174.64" cy="91.72" r="20"/>
		<text transform="matrix(1 0 0 1 168.6421 100.7191)" class="st4 st5 st6">3</text>
	</g>
	<g id="Group_8" transform="translate(20 -67)" class="st2">
		<circle id="Ellipse_4" class="st7" cx="228.64" cy="91.72" r="20"/>
		<text transform="matrix(1 0 0 1 222.6421 100.7191)" class="st4 st5 st6">4</text>
	</g>
</g>
<g id="crycle2">
	<line id="Line_2_1_" class="st8" x1="39.14" y1="26.22" x2="229.14" y2="26.22"/>
	<g id="Group_11_1_" transform="translate(-35 -67)">
		<circle id="Ellipse_1_1_" class="st7" cx="61.64" cy="91.72" r="20"/>
		<text transform="matrix(1 0 0 1 55.6421 100.7191)" class="st4 st5 st6">1</text>
	</g>
	<g id="Group_10_1_" transform="translate(-20 -66)">
		<circle id="Ellipse_2_1_" class="st3" cx="120.64" cy="91.72" r="20"/>
		<text transform="matrix(1 0 0 1 114.6421 100.7191)" class="st4 st5 st6">2</text>
	</g>
	<g id="Group_9_1_" transform="translate(0 -66)">
		<circle id="Ellipse_3_1_" class="st7" cx="174.64" cy="91.72" r="20"/>
		<text transform="matrix(1 0 0 1 168.6421 100.7191)" class="st4 st5 st6">3</text>
	</g>
	<g id="Group_8_1_" transform="translate(20 -67)">
		<circle id="Ellipse_4_1_" class="st7" cx="228.64" cy="91.72" r="20"/>
		<text transform="matrix(1 0 0 1 222.6421 100.7191)" class="st4 st5 st6">4</text>
	</g>
</g>
<g id="crycle3" class="st0">
	<line id="Line_2_2_" class="st1" x1="39.14" y1="26.22" x2="229.14" y2="26.22"/>
	<g id="Group_11_2_" transform="translate(-35 -67)" class="st2">
		<circle id="Ellipse_1_2_" class="st7" cx="61.64" cy="91.72" r="20"/>
		<text transform="matrix(1 0 0 1 55.6421 100.7191)" class="st4 st5 st6">1</text>
	</g>
	<g id="Group_10_2_" transform="translate(-20 -66)" class="st2">
		<circle id="Ellipse_2_2_" class="st7" cx="120.64" cy="91.72" r="20"/>
		<text transform="matrix(1 0 0 1 114.6421 100.7191)" class="st4 st5 st6">2</text>
	</g>
	<g id="Group_9_2_" transform="translate(0 -66)" class="st2">
		<circle id="Ellipse_3_2_" class="st3" cx="174.64" cy="91.72" r="20"/>
		<text transform="matrix(1 0 0 1 168.6421 100.7191)" class="st4 st5 st6">3</text>
	</g>
	<g id="Group_8_2_" transform="translate(20 -67)" class="st2">
		<circle id="Ellipse_4_2_" class="st7" cx="228.64" cy="91.72" r="20"/>
		<text transform="matrix(1 0 0 1 222.6421 100.7191)" class="st4 st5 st6">4</text>
	</g>
</g>
<g id="crycle4" class="st0">
	<line id="Line_2_3_" class="st1" x1="39.14" y1="26.22" x2="229.14" y2="26.22"/>
	<g id="Group_11_3_" transform="translate(-35 -67)" class="st2">
		<circle id="Ellipse_1_3_" class="st7" cx="61.64" cy="91.72" r="20"/>
		<text transform="matrix(1 0 0 1 55.6421 100.7191)" class="st4 st5 st6">1</text>
	</g>
	<g id="Group_10_3_" transform="translate(-20 -66)" class="st2">
		<circle id="Ellipse_2_3_" class="st7" cx="120.64" cy="91.72" r="20"/>
		<text transform="matrix(1 0 0 1 114.6421 100.7191)" class="st4 st5 st6">2</text>
	</g>
	<g id="Group_9_3_" transform="translate(0 -66)" class="st2">
		<circle id="Ellipse_3_3_" class="st7" cx="174.64" cy="91.72" r="20"/>
		<text transform="matrix(1 0 0 1 168.6421 100.7191)" class="st4 st5 st6">3</text>
	</g>
	<g id="Group_8_3_" transform="translate(20 -67)" class="st2">
		<circle id="Ellipse_4_3_" class="st3" cx="228.64" cy="91.72" r="20"/>
		<text transform="matrix(1 0 0 1 222.6421 100.7191)" class="st4 st5 st6">4</text>
	</g>
</g>
</svg>
